<svg width="111" height="44" viewBox="0 0 111 44" fill="none" xmlns="http://www.w3.org/2000/svg">
<path d="M13.6061 14.968C12.5981 15 11.8221 15.384 11.2781 16.12C10.7501 16.856 10.4861 18.128 10.4861 19.936C10.4861 20.528 10.5421 20.944 10.6541 21.184C10.7661 21.408 10.8221 21.536 10.8221 21.568C9.95809 21.568 9.31009 21.392 8.87809 21.04C8.46209 20.672 8.25409 20.072 8.25409 19.24C8.25409 18.104 8.53409 17.072 9.09409 16.144C9.65409 15.2 10.5421 14.44 11.7581 13.864C12.9901 13.288 14.5501 13 16.4381 13C16.8221 13 17.3341 13.04 17.9741 13.12C19.1261 13.232 19.9421 13.288 20.4221 13.288C21.2701 13.288 21.9901 13.192 22.5821 13C22.5341 13.144 22.4461 13.464 22.3181 13.96C22.1901 14.44 21.9581 14.856 21.6221 15.208C21.3021 15.544 20.8621 15.768 20.3021 15.88C19.3581 15.88 18.2381 15.728 16.9421 15.424L15.9341 20.2H19.4381L19.0541 21.976H15.5501L13.6061 31H10.1501L13.6061 14.968ZM22.5577 31.096C21.3737 31.096 20.4377 30.792 19.7497 30.184C19.0617 29.576 18.7177 28.616 18.7177 27.304C18.7177 26.216 18.9417 25.008 19.3897 23.68C19.8377 22.352 20.5577 21.208 21.5497 20.248C22.5417 19.272 23.7897 18.784 25.2937 18.784C27.3417 18.784 28.3657 20.064 28.3657 22.624V22.648C28.4137 22.664 28.5017 22.672 28.6297 22.672C29.1577 22.672 29.7657 22.536 30.4537 22.264C31.1417 21.976 31.7657 21.632 32.3257 21.232L32.5417 21.88C32.0777 22.376 31.4697 22.8 30.7177 23.152C29.9817 23.488 29.1737 23.728 28.2937 23.872C28.1657 25.328 27.8377 26.6 27.3097 27.688C26.7817 28.776 26.1017 29.616 25.2697 30.208C24.4377 30.8 23.5337 31.096 22.5577 31.096ZM23.5177 28.936C23.9017 28.936 24.2857 28.72 24.6697 28.288C25.0537 27.84 25.3897 27.24 25.6777 26.488C25.9657 25.72 26.1737 24.872 26.3017 23.944C25.8697 23.848 25.6537 23.512 25.6537 22.936C25.6537 22.28 25.9017 21.848 26.3977 21.64C26.3657 21.112 26.2857 20.752 26.1577 20.56C26.0297 20.352 25.8057 20.248 25.4857 20.248C24.9577 20.248 24.4457 20.632 23.9497 21.4C23.4537 22.168 23.0537 23.088 22.7497 24.16C22.4457 25.232 22.2937 26.176 22.2937 26.992C22.2937 27.76 22.3817 28.28 22.5577 28.552C22.7337 28.808 23.0537 28.936 23.5177 28.936ZM33.1046 31.096C31.9206 31.096 30.9846 30.792 30.2966 30.184C29.6086 29.576 29.2646 28.616 29.2646 27.304C29.2646 26.216 29.4886 25.008 29.9366 23.68C30.3846 22.352 31.1046 21.208 32.0966 20.248C33.0886 19.272 34.3366 18.784 35.8406 18.784C37.8886 18.784 38.9126 20.064 38.9126 22.624V22.648C38.9606 22.664 39.0486 22.672 39.1766 22.672C39.7046 22.672 40.3126 22.536 41.0006 22.264C41.6886 21.976 42.3126 21.632 42.8726 21.232L43.0886 21.88C42.6246 22.376 42.0166 22.8 41.2646 23.152C40.5286 23.488 39.7206 23.728 38.8406 23.872C38.7126 25.328 38.3846 26.6 37.8566 27.688C37.3286 28.776 36.6486 29.616 35.8166 30.208C34.9846 30.8 34.0806 31.096 33.1046 31.096ZM34.0646 28.936C34.4486 28.936 34.8326 28.72 35.2166 28.288C35.6006 27.84 35.9366 27.24 36.2246 26.488C36.5126 25.72 36.7206 24.872 36.8486 23.944C36.4166 23.848 36.2006 23.512 36.2006 22.936C36.2006 22.28 36.4486 21.848 36.9446 21.64C36.9126 21.112 36.8326 20.752 36.7046 20.56C36.5766 20.352 36.3526 20.248 36.0326 20.248C35.5046 20.248 34.9926 20.632 34.4966 21.4C34.0006 22.168 33.6006 23.088 33.2966 24.16C32.9926 25.232 32.8406 26.176 32.8406 26.992C32.8406 27.76 32.9286 28.28 33.1046 28.552C33.2806 28.808 33.6006 28.936 34.0646 28.936ZM43.0275 31.144C42.1155 31.144 41.3555 30.832 40.7475 30.208C40.1395 29.584 39.8355 28.608 39.8355 27.28C39.8355 26.096 40.0675 24.856 40.5315 23.56C41.0115 22.248 41.7155 21.144 42.6435 20.248C43.5875 19.336 44.7075 18.88 46.0035 18.88C46.6595 18.88 47.1475 18.992 47.4675 19.216C47.7875 19.44 47.9475 19.736 47.9475 20.104V20.2L49.1235 14.68L52.6755 14.2L49.9155 27.16C49.8515 27.4 49.8195 27.656 49.8195 27.928C49.8195 28.248 49.8915 28.48 50.0355 28.624C50.1955 28.752 50.4515 28.816 50.8035 28.816C51.2515 28.816 51.6355 28.624 51.9555 28.24C52.2915 27.856 52.5555 27.344 52.7475 26.704H53.7555C52.7795 29.568 51.1715 31 48.9315 31C48.2755 31 47.7395 30.824 47.3235 30.472C46.9235 30.12 46.6755 29.608 46.5795 28.936C46.1635 29.576 45.6595 30.104 45.0675 30.52C44.4915 30.936 43.8115 31.144 43.0275 31.144ZM44.5875 28.816C44.9715 28.816 45.3555 28.64 45.7395 28.288C46.1395 27.936 46.4115 27.448 46.5555 26.824V26.704L47.7315 21.208C47.5875 20.648 47.2595 20.368 46.7475 20.368C46.1075 20.368 45.5315 20.744 45.0195 21.496C44.5075 22.232 44.1075 23.128 43.8195 24.184C43.5315 25.224 43.3875 26.144 43.3875 26.944C43.3875 27.744 43.4995 28.256 43.7235 28.48C43.9635 28.704 44.2515 28.816 44.5875 28.816ZM55.1328 31.144C54.3648 31.144 53.7408 30.904 53.2608 30.424C52.7968 29.944 52.5648 29.224 52.5648 28.264C52.5648 27.864 52.6288 27.344 52.7568 26.704L55.3248 14.68L58.8768 14.2L56.1168 27.16C56.0528 27.4 56.0208 27.656 56.0208 27.928C56.0208 28.248 56.0928 28.48 56.2368 28.624C56.3968 28.752 56.6528 28.816 57.0048 28.816C57.4688 28.816 57.9008 28.624 58.3008 28.24C58.7008 27.84 58.9888 27.328 59.1648 26.704H60.1728C59.5808 28.432 58.8208 29.608 57.8928 30.232C56.9648 30.84 56.0448 31.144 55.1328 31.144ZM62.0353 31.144C61.1233 31.144 60.3633 30.832 59.7553 30.208C59.1473 29.584 58.8433 28.608 58.8433 27.28C58.8433 26.096 59.0753 24.856 59.5393 23.56C60.0193 22.248 60.7233 21.144 61.6513 20.248C62.5953 19.336 63.7153 18.88 65.0113 18.88C65.6673 18.88 66.1553 18.992 66.4753 19.216C66.7953 19.44 66.9553 19.736 66.9553 20.104V20.272L67.2193 19H70.6753L68.9473 27.16C68.8833 27.4 68.8513 27.656 68.8513 27.928C68.8513 28.616 69.1793 28.96 69.8353 28.96C70.2833 28.96 70.6673 28.752 70.9873 28.336C71.3233 27.92 71.5873 27.376 71.7793 26.704H72.7873C72.1953 28.432 71.4593 29.608 70.5793 30.232C69.7153 30.84 68.8433 31.144 67.9633 31.144C67.2913 31.144 66.7473 30.96 66.3313 30.592C65.9313 30.208 65.6913 29.656 65.6113 28.936C65.1473 29.592 64.6273 30.128 64.0513 30.544C63.4913 30.944 62.8193 31.144 62.0353 31.144ZM63.5953 28.816C63.9953 28.816 64.3873 28.632 64.7713 28.264C65.1713 27.88 65.4433 27.36 65.5873 26.704L66.7393 21.28C66.7393 21.072 66.6593 20.872 66.4993 20.68C66.3393 20.472 66.0913 20.368 65.7553 20.368C65.1153 20.368 64.5393 20.744 64.0273 21.496C63.5153 22.232 63.1153 23.128 62.8273 24.184C62.5393 25.224 62.3953 26.144 62.3953 26.944C62.3953 27.744 62.5073 28.256 62.7313 28.48C62.9713 28.704 63.2593 28.816 63.5953 28.816ZM80.4521 31.144C79.4761 31.144 78.7561 30.888 78.2921 30.376C77.8441 29.848 77.6201 29.2 77.6201 28.432C77.6201 28.096 77.6601 27.72 77.7401 27.304C77.8201 26.872 77.9001 26.456 77.9801 26.056C78.0761 25.656 78.1401 25.4 78.1721 25.288C78.3001 24.728 78.4201 24.176 78.5321 23.632C78.6441 23.088 78.7001 22.648 78.7001 22.312C78.7001 21.496 78.4121 21.088 77.8361 21.088C77.4201 21.088 77.0521 21.296 76.7321 21.712C76.4121 22.112 76.1561 22.64 75.9641 23.296L74.3321 31H70.8761L73.4201 19H76.8761L76.6121 20.248C77.4121 19.352 78.3481 18.904 79.4201 18.904C80.2361 18.904 80.8841 19.128 81.3641 19.576C81.8441 20.024 82.0841 20.704 82.0841 21.616C82.0841 22.08 82.0281 22.6 81.9161 23.176C81.8041 23.736 81.6441 24.424 81.4361 25.24C81.3081 25.736 81.1881 26.224 81.0761 26.704C80.9801 27.168 80.9321 27.536 80.9321 27.808C80.9321 28.128 81.0041 28.376 81.1481 28.552C81.2921 28.728 81.5401 28.816 81.8921 28.816C82.3721 28.816 82.7561 28.648 83.0441 28.312C83.3321 27.96 83.6201 27.424 83.9081 26.704H84.9161C84.3241 28.464 83.6361 29.648 82.8521 30.256C82.0841 30.848 81.2841 31.144 80.4521 31.144ZM86.7853 31.144C85.8733 31.144 85.1133 30.832 84.5053 30.208C83.8973 29.584 83.5933 28.608 83.5933 27.28C83.5933 26.096 83.8253 24.856 84.2893 23.56C84.7693 22.248 85.4733 21.144 86.4013 20.248C87.3453 19.336 88.4653 18.88 89.7613 18.88C90.4173 18.88 90.9053 18.992 91.2253 19.216C91.5453 19.44 91.7053 19.736 91.7053 20.104V20.2L92.8813 14.68L96.4333 14.2L93.6733 27.16C93.6093 27.4 93.5773 27.632 93.5773 27.856C93.5773 28.496 93.9053 28.816 94.5613 28.816C94.8493 28.816 95.1053 28.768 95.3293 28.672C95.2653 29.472 94.9773 30.088 94.4653 30.52C93.9693 30.936 93.3773 31.144 92.6893 31.144C92.0493 31.144 91.5053 30.984 91.0573 30.664C90.6253 30.328 90.3373 29.824 90.1933 29.152C89.2333 30.48 88.0973 31.144 86.7853 31.144ZM88.3453 28.816C88.6973 28.816 89.0493 28.664 89.4013 28.36C89.7693 28.056 90.0413 27.632 90.2173 27.088L90.3133 26.704L91.4893 21.208C91.3453 20.648 91.0173 20.368 90.5053 20.368C89.8653 20.368 89.2893 20.744 88.7773 21.496C88.2653 22.232 87.8653 23.128 87.5773 24.184C87.2893 25.224 87.1453 26.144 87.1453 26.944C87.1453 27.744 87.2573 28.256 87.4813 28.48C87.7213 28.704 88.0093 28.816 88.3453 28.816Z" fill="white"/>
<path d="M97.9593 31.096C97.4313 31.096 96.9833 30.912 96.6153 30.544C96.2473 30.176 96.0633 29.728 96.0633 29.2C96.0633 28.672 96.2473 28.224 96.6153 27.856C96.9833 27.472 97.4313 27.28 97.9593 27.28C98.4873 27.28 98.9353 27.472 99.3033 27.856C99.6873 28.224 99.8793 28.672 99.8793 29.2C99.8793 29.728 99.6873 30.176 99.3033 30.544C98.9353 30.912 98.4873 31.096 97.9593 31.096Z" fill="#FF7426"/>
</svg>
